<svg xmlns="http://www.w3.org/2000/svg" xmlns:xlink="http://www.w3.org/1999/xlink" width="500" zoomAndPan="magnify" viewBox="0 0 375 374.999991" height="500" preserveAspectRatio="xMidYMid meet" version="1.0"><defs><g/></defs><rect x="-37.5" width="450" fill="#ffffff" y="-37.499999" height="449.999989" fill-opacity="1"/><rect x="-37.5" width="450" fill="#000000" y="-37.499999" height="449.999989" fill-opacity="1"/><g fill="#ffffff" fill-opacity="1"><g transform="translate(53.920899, 297.078956)"><g><path d="M 105.441406 3.980469 C 156.597656 3.980469 186.4375 -21.882812 186.4375 -62.808594 C 186.4375 -111.976562 143.523438 -121.640625 107.429688 -129.597656 C 81 -135.566406 57.695312 -140.679688 57.695312 -160.574219 C 57.695312 -177.058594 72.472656 -185.871094 92.933594 -185.871094 C 115.101562 -185.871094 133.578125 -175.355469 138.976562 -152.332031 L 180.753906 -152.332031 C 173.933594 -199.226562 135.566406 -220.828125 93.789062 -220.828125 C 50.019531 -220.828125 17.050781 -198.945312 17.050781 -157.164062 C 17.050781 -111.410156 57.410156 -102.597656 92.933594 -94.640625 C 120.503906 -88.671875 145.230469 -83.273438 145.230469 -60.820312 C 145.230469 -40.074219 128.175781 -30.976562 105.722656 -30.976562 C 82.988281 -30.976562 59.398438 -39.503906 52.292969 -70.484375 L 9.945312 -70.484375 C 15.347656 -14.496094 63.660156 3.980469 105.441406 3.980469 Z M 105.441406 3.980469 "/></g></g></g><g fill="#ffffff" fill-opacity="1"><g transform="translate(251.727251, 297.078956)"><g><path d="M 35.242188 3.125 C 47.179688 3.125 57.410156 -7.105469 57.410156 -19.894531 C 57.410156 -31.832031 47.179688 -42.347656 35.242188 -42.347656 C 22.738281 -42.347656 11.9375 -32.113281 11.9375 -19.894531 C 11.9375 -7.105469 22.453125 3.125 35.242188 3.125 Z M 35.242188 3.125 "/></g></g></g></svg>